<svg width="22" height="22" viewBox="0 0 22 22" fill="none" xmlns="http://www.w3.org/2000/svg">
<g clip-path="url(#clip0_7_71)">
<path d="M3.03626 5.2765C4.4077 5.2765 5.51947 4.10914 5.51947 2.66913C5.51947 1.22913 4.4077 0.0617676 3.03626 0.0617676C1.66482 0.0617676 0.553056 1.22913 0.553056 2.66913C0.553056 4.10914 1.66482 5.2765 3.03626 5.2765Z" fill="#D3E97A"/>
<path d="M7.86422 7.25203V21.7177H12.1417V14.5641C12.1417 12.6765 12.4799 10.8485 14.7089 10.8485C16.9073 10.8485 16.9345 13.0066 16.9345 14.6833V21.7189H21.2143V13.7859C21.2143 9.88919 20.4153 6.89453 16.0776 6.89453C13.9951 6.89453 12.5991 8.09454 12.0282 9.2302H11.9704V7.25203H7.86422ZM0.893533 7.25203H5.17786V21.7177H0.893533V7.25203Z" fill="#D3E97A"/>
</g>
<defs>
<clipPath id="clip0_7_71">
<rect width="22" height="22" fill="white"/>
</clipPath>
</defs>
</svg>
